<svg xmlns="http://www.w3.org/2000/svg" width="338.787" height="324.305" viewBox="0 0 338.787 324.305">
  <g id="Group_1571" data-name="Group 1571" transform="translate(-44.606 -169.926)">
    <g id="Illustration" transform="translate(44.606 397.753) rotate(-69)">
      <path id="Path_456" data-name="Path 456" d="M102.279.485C69.875,1.066,18.833,30.856,4.4,63.007-.637,74.236-.3,90.744.386,123.76a354.332,354.332,0,0,0,2.869,41.4c4.852,36.457,8.155,61.275,20.656,75.726,31.323,36.211,154.626,45.6,202.944-19.588,26.357-35.562,20.257-96.589-3.844-138.4C203.88,49.712,190.269,10.093,157.266,1.972,144.842-1.085,114.382.268,102.279.485Z" transform="translate(0 0)" fill="#ffd500"/>
    </g>
    <g id="Push_notifications-pana" data-name="Push notifications-pana" transform="translate(90.289 194.838)">
      <g id="freepik--background-complete--inject-6" transform="translate(11.944 6.395)">
        <rect id="Rectangle_78" data-name="Rectangle 78" width="48.339" height="80.021" transform="translate(1.606)" fill="#e0e0e0"/>
        <rect id="Rectangle_79" data-name="Rectangle 79" width="48.339" height="80.021" fill="#ebebeb"/>
        <rect id="Rectangle_80" data-name="Rectangle 80" width="44.227" height="76.772" transform="translate(2.059 1.622)" fill="#fafafa"/>
        <rect id="Rectangle_81" data-name="Rectangle 81" width="27.193" height="56.821" transform="translate(10.481 11.6)" fill="#ebebeb"/>
        <path id="Path_1436" data-name="Path 1436" d="M74.209,110.631c-.066-5.309,4.708-10.491,9.962-11.229,2.507-.355,5.172.142,7.515-.819,4.178-1.715,5.511-7.269,9.716-8.913l.191,41.07H74.209Z" transform="translate(-63.729 -62.319)" fill="#e0e0e0"/>
        <rect id="Rectangle_82" data-name="Rectangle 82" width="46.362" height="48.329" transform="translate(195.833 55.207)" fill="#e0e0e0"/>
        <path id="Path_1758" data-name="Path 1758" d="M0,0H46.362V48.329H0Z" transform="translate(192.692 55.207)" fill="#fafafa"/>
        <path id="Path_1437" data-name="Path 1437" d="M428.13,93.406H381.74V45.05h46.39Zm-46.362-.027H428.1v-48.3H381.767Z" transform="translate(-189.064 10.141)" fill="#e0e0e0"/>
        <rect id="Rectangle_84" data-name="Rectangle 84" width="33.899" height="35.336" transform="translate(198.924 61.701)" fill="#fafafa"/>
        <path id="Path_1438" data-name="Path 1438" d="M388.038,122.1a5.336,5.336,0,0,1-.836.972c-.546.573-1.305,1.344-2.157,2.185s-1.638,1.589-2.212,2.119a5.259,5.259,0,0,1-.983.819,5.559,5.559,0,0,1,.836-.972c.546-.546,1.3-1.344,2.157-2.185s1.638-1.595,2.217-2.125a5.362,5.362,0,0,1,.978-.814Z" transform="translate(-189.114 -24.829)" fill="#e0e0e0"/>
        <path id="Path_1439" data-name="Path 1439" d="M455.25,121.94a5.807,5.807,0,0,1,.972.836c.546.546,1.344,1.305,2.185,2.185s1.584,1.638,2.119,2.217a5.148,5.148,0,0,1,.814.978,5.46,5.46,0,0,1-.967-.83c-.573-.546-1.349-1.305-2.185-2.185s-1.595-1.638-2.125-2.217A5.157,5.157,0,0,1,455.25,121.94Z" transform="translate(-222.427 -24.756)" fill="#e0e0e0"/>
        <path id="Path_1440" data-name="Path 1440" d="M455.08,52.09a5.334,5.334,0,0,1,.836-.972c.546-.546,1.3-1.349,2.152-2.185s1.638-1.589,2.217-2.125a5.668,5.668,0,0,1,.978-.808,5.462,5.462,0,0,1-.83.967c-.546.573-1.305,1.349-2.185,2.185s-1.638,1.595-2.217,2.125A6.056,6.056,0,0,1,455.08,52.09Z" transform="translate(-222.35 9.709)" fill="#e0e0e0"/>
        <path id="Path_1441" data-name="Path 1441" d="M387.935,52.162a5.333,5.333,0,0,1-.972-.836c-.574-.546-1.344-1.3-2.185-2.152s-1.589-1.638-2.119-2.217a5.578,5.578,0,0,1-.819-.978,5.352,5.352,0,0,1,.972.83c.546.546,1.344,1.305,2.185,2.185s1.595,1.638,2.125,2.217A5.386,5.386,0,0,1,387.935,52.162Z" transform="translate(-189.109 9.718)" fill="#e0e0e0"/>
        <path id="Path_1442" data-name="Path 1442" d="M426.878,92.183a1.052,1.052,0,0,1,0-.169c0-.12,0-.284,0-.5V89.611c0-1.671,0-4.107-.033-7.2,0-6.193-.038-15.008-.066-25.565l.131.131h-33.8l.147-.153V92.161l-.131-.126L417.6,92.1l6.87.033h2.458a.792.792,0,0,1-.153,0h-2.288l-6.843.033-24.577.066h-.131V56.7h34.091v.164c-.033,10.6-.055,19.437-.071,25.669,0,3.08,0,5.505-.033,7.171v2.359C426.927,92.178,426.878,92.189,426.878,92.183Z" transform="translate(-194.147 4.853)" fill="#e0e0e0"/>
        <rect id="Rectangle_85" data-name="Rectangle 85" width="11.311" height="11.311" transform="translate(210.218 73.716)" fill="#ebebeb"/>
      </g>
      <g id="freepik--Floor--inject-6" transform="translate(0 241.479)">
        <path id="Path_1445" data-name="Path 1445" d="M256.764,471.292c0,.082-52.392.142-117.007.142s-117.018-.06-117.018-.142,52.381-.142,117.018-.142S256.764,471.216,256.764,471.292Z" transform="translate(-22.74 -471.15)" fill="#263238"/>
      </g>
      <g id="freepik--Device--inject-6" transform="translate(95.876 0)">
        <path id="Path_1446" data-name="Path 1446" d="M273.778,211.457l-61.993-.044a13.506,13.506,0,0,1-13.5-13.506V42.5A13.506,13.506,0,0,1,211.834,29l61.993.038a13.506,13.506,0,0,1,13.5,13.506l-.033,155.406a13.5,13.5,0,0,1-13.512,13.506Z" transform="translate(-198.29 -29)" fill="#455a64"/>
        <path id="Path_1447" data-name="Path 1447" d="M277.189,39.131H265.173a2.982,2.982,0,0,0-2.916,3.048v2.185a2.982,2.982,0,0,1-2.916,3.048h-23.43a2.987,2.987,0,0,1-2.916-3.053V42.173a2.987,2.987,0,0,0-2.916-3.053H215.332a9.454,9.454,0,0,0-9.465,9.454l-.027,151.692a9.459,9.459,0,0,0,9.448,9.459l61.868.033a9.454,9.454,0,0,0,9.465-9.454V48.612A9.459,9.459,0,0,0,277.189,39.131Z" transform="translate(-201.717 -33.593)" fill="#fafafa"/>
        <rect id="Rectangle_86" data-name="Rectangle 86" width="0.688" height="0.961" transform="translate(64.036 10.459)" fill="#263238"/>
        <rect id="Rectangle_87" data-name="Rectangle 87" width="0.688" height="1.393" transform="translate(65.155 10.033)" fill="#263238"/>
        <rect id="Rectangle_88" data-name="Rectangle 88" width="0.688" height="1.715" transform="translate(66.269 9.711)" fill="#263238"/>
        <rect id="Rectangle_89" data-name="Rectangle 89" width="0.688" height="2.338" transform="translate(67.389 9.088)" fill="#263238"/>
        <path id="Path_1448" data-name="Path 1448" d="M338.437,48.163h-3.446a.251.251,0,0,1-.251-.246V46.2a.246.246,0,0,1,.246-.246h3.452a.06.06,0,0,1,.044,0,.088.088,0,0,1,0,.049v.546h.371a.066.066,0,0,1,.066.066v.825a.066.066,0,0,1-.066.06h-.371v.546a.061.061,0,0,1-.044.115Zm-.066-2.081h-3.386a.12.12,0,0,0-.12.12v1.715a.12.12,0,0,0,.126.12h3.381v-.546a.066.066,0,0,1,.066-.066h.366V46.71h-.366a.06.06,0,0,1-.066-.06Z" transform="translate(-260.218 -36.694)" fill="#263238"/>
        <path id="Path_1449" data-name="Path 1449" d="M335.49,48.1V46.71h2.944V48.1Z" transform="translate(-260.559 -37.038)" fill="#263238"/>
        <path id="Path_1450" data-name="Path 1450" d="M328.582,49.551a.257.257,0,0,0-.251-.251.251.251,0,0,0-.251.251.246.246,0,0,0,.251.251A.251.251,0,0,0,328.582,49.551Z" transform="translate(-257.196 -38.213)" fill="#263238"/>
        <path id="Path_1451" data-name="Path 1451" d="M326.92,48.355l.322.322a.759.759,0,0,1,1.092,0l.322-.322a1.212,1.212,0,0,0-.874-.355A1.229,1.229,0,0,0,326.92,48.355Z" transform="translate(-256.669 -37.623)" fill="#263238"/>
        <path id="Path_1452" data-name="Path 1452" d="M327.365,46.68a1.922,1.922,0,0,0-1.365.546l.317.322a1.486,1.486,0,0,1,2.092,0l.322-.322A1.933,1.933,0,0,0,327.365,46.68Z" transform="translate(-256.252 -37.024)" fill="#263238"/>
        <path id="Path_1453" data-name="Path 1453" d="M325,46.111l.322.322a2.217,2.217,0,0,1,3.135,0l.322-.322A2.676,2.676,0,0,0,325,46.111Z" transform="translate(-255.798 -36.411)" fill="#263238"/>
        <rect id="Rectangle_90" data-name="Rectangle 90" width="5.199" height="3.861" rx="0.95" transform="translate(43.976 24.413)" fill="#263238"/>
        <path id="Path_1454" data-name="Path 1454" d="M280.454,71.886h-.546v-.634a2,2,0,1,1,3.992,0v.415h-.546v-.415a1.453,1.453,0,1,0-2.9,0Z" transform="translate(-235.331 -47.221)" fill="#263238"/>
        <path id="Path_1455" data-name="Path 1455" d="M207,183.671a27.853,27.853,0,0,1,14.3-24.03c6.008-3.277,13.009-4.129,19.689-5.664s13.6-4.069,17.733-9.536c5.582-7.389,4.517-17.892,8.547-26.215a23.588,23.588,0,0,1,20.016-13.037V232.175a7.717,7.717,0,0,1-7.717,7.717H214.728A7.723,7.723,0,0,1,207,232.175Z" transform="translate(-202.243 -63.579)" fill="#ebebeb"/>
        <ellipse id="Ellipse_264" data-name="Ellipse 264" cx="10.672" cy="10.672" rx="10.672" ry="10.672" transform="translate(6.613 41.132) rotate(-77.87)" fill="#e0e0e0"/>
        <text id="_07:30" data-name="07:30" transform="translate(44.336 58.162)" fill="#263238" font-size="23" font-family="SegoeUI, Segoe UI"><tspan x="-27.29" y="0">07:30</tspan></text>
      </g>
      <g id="freepik--Character--inject-6" transform="translate(4.055 73.373)">
        <path id="Path_1461" data-name="Path 1461" d="M96.011,210.923a16.22,16.22,0,0,0-2.578-1.18,2.752,2.752,0,0,1-1.77-2.054c-.115-1.4,1.425-2.452,1.518-3.823.126-1.972-2.54-3.047-2.927-4.981-.322-1.606,1.038-3.118.983-4.757s-1.475-2.856-2.119-4.369c-1.507-3.484,1.267-7.979-.836-11.141a15.767,15.767,0,0,0-2.13-2.185,3.533,3.533,0,0,1-1.262-2.682l-3.943-1.791c-1.322-2.021-4.32-2.1-6.554-1.234s-4.233,2.409-6.554,2.987c-1.136.279-.972-1.4-2.119-1.169a6.063,6.063,0,0,0-3.823,3.534c-.459,1.567-.781,3.3-1.338,4.844-.617,1.7-2.436,2.884-2.611,4.686-.2,2.1,1.972,3.823,1.977,5.92,0,2.267-2.5,4.3-1.7,6.423.459,1.212,1.857,1.862,2.348,3.064.672,1.638-.666,3.484-.546,5.27s1.606,3.1,3.009,4.167a63.3,63.3,0,0,0,17.712,9.732,20.986,20.986,0,0,0,8.6,1.415,9.52,9.52,0,0,0,7.378-4.162C97.977,215.39,97.966,212.327,96.011,210.923Z" transform="translate(-42.769 -166.459)" fill="#263238"/>
        <path id="Path_1462" data-name="Path 1462" d="M87.716,169.651a8.323,8.323,0,0,0-14-3.823,17.911,17.911,0,0,1-2.5,2.561,8.373,8.373,0,0,1-2.545,1.032c-1.256.486-3.566,4-3.528,5.352L64.51,180.7c.049,1.387,1.835,2.185,3.146,1.715a6.012,6.012,0,0,0,2.884-2.884,9.223,9.223,0,0,1,2.485-3.271c1.884-1.327,4.44-.868,6.7-.41s4.872.792,6.636-.694A5.517,5.517,0,0,0,87.716,169.651Z" transform="translate(-45.752 -163.346)" fill="#263238"/>
        <path id="Path_1463" data-name="Path 1463" d="M92.078,183.563c-.257-3.861-2.824-8.591-6.668-8.192l-12.015,3.064a2.261,2.261,0,0,0-2.015,2.3l1.349,28.946h-.087s4.915,10.35,12.824,7.854c1.573-.5.142-4.4.459-6.171H86v-.606a18.994,18.994,0,0,0,.049-3.976h0V203.5s4.915-.83,5.937-7.264C92.526,193.1,92.357,187.85,92.078,183.563Z" transform="translate(-48.87 -168.793)" fill="#ffbe9d"/>
        <path id="Path_1464" data-name="Path 1464" d="M106.089,198.85a.825.825,0,0,1-.8.836.792.792,0,0,1-.852-.743.83.83,0,0,1,.8-.836.787.787,0,0,1,.852.743Z" transform="translate(-63.875 -179.122)" fill="#263238"/>
        <path id="Path_1465" data-name="Path 1465" d="M104.45,194.673c-.1.109-.726-.35-1.638-.35s-1.535.453-1.638.344.055-.246.339-.448a2.278,2.278,0,0,1,1.311-.41,2.185,2.185,0,0,1,1.283.415C104.407,194.46,104.5,194.624,104.45,194.673Z" transform="translate(-62.378 -177.172)" fill="#263238"/>
        <path id="Path_1466" data-name="Path 1466" d="M90.724,199.38a.819.819,0,0,1-.792.83.786.786,0,0,1-.852-.743.819.819,0,0,1,.792-.83.786.786,0,0,1,.852.743Z" transform="translate(-56.904 -179.362)" fill="#263238"/>
        <path id="Path_1467" data-name="Path 1467" d="M88.47,195.013c-.1.109-.726-.355-1.638-.35s-1.535.453-1.638.344.055-.246.339-.453a2.3,2.3,0,0,1,1.311-.4,2.184,2.184,0,0,1,1.283.41C88.427,194.773,88.519,194.964,88.47,195.013Z" transform="translate(-55.125 -177.327)" fill="#263238"/>
        <path id="Path_1468" data-name="Path 1468" d="M96.788,201.63a5.687,5.687,0,0,1,1.442-.268c.224,0,.442-.066.481-.224a1.2,1.2,0,0,0-.153-.672c-.218-.546-.442-1.12-.677-1.726a26.449,26.449,0,0,1-1.513-4.511,26.565,26.565,0,0,1,1.873,4.369c.224.606.442,1.185.644,1.737a1.311,1.311,0,0,1,.12.89.574.574,0,0,1-.371.333,1.831,1.831,0,0,1-.382.055A5.964,5.964,0,0,1,96.788,201.63Z" transform="translate(-60.205 -177.363)" fill="#263238"/>
        <path id="Path_1469" data-name="Path 1469" d="M91.154,225.107a16.384,16.384,0,0,1-8.624-2.277s2.1,4.413,8.536,3.823Z" transform="translate(-53.931 -190.343)" fill="#eb996e"/>
        <path id="Path_1470" data-name="Path 1470" d="M94.271,211.2a1.6,1.6,0,0,0-1.436-.6,1.453,1.453,0,0,0-1,.546.923.923,0,0,0-.071,1.06,1.092,1.092,0,0,0,1.169.289,3.337,3.337,0,0,0,1.131-.677.972.972,0,0,0,.251-.268.289.289,0,0,0,0-.328" transform="translate(-58.058 -184.788)" fill="#eb996e"/>
        <path id="Path_1471" data-name="Path 1471" d="M92.25,208.91c.142,0,.147.956.972,1.638s1.851.573,1.862.71-.229.186-.661.2a2.42,2.42,0,0,1-1.557-.546,2.1,2.1,0,0,1-.754-1.371C92.075,209.145,92.184,208.9,92.25,208.91Z" transform="translate(-58.277 -184.026)" fill="#263238"/>
        <path id="Path_1472" data-name="Path 1472" d="M88.631,192.334c-.087.246-.978.131-2.015.257s-1.884.415-2.026.2c-.06-.1.087-.333.426-.546a3.359,3.359,0,0,1,1.5-.546,3.425,3.425,0,0,1,1.578.186C88.445,192.034,88.631,192.219,88.631,192.334Z" transform="translate(-54.86 -176.204)" fill="#263238"/>
        <path id="Path_1473" data-name="Path 1473" d="M104.08,189.941c-.153.2-.765,0-1.5,0s-1.354.142-1.5-.071c-.06-.1.038-.306.306-.5a2.185,2.185,0,0,1,2.425.071C104.063,189.635,104.151,189.843,104.08,189.941Z" transform="translate(-62.34 -175.008)" fill="#263238"/>
        <path id="Path_1474" data-name="Path 1474" d="M82.4,171.829l-.546-.7a41.353,41.353,0,0,0-10.825,2.764,8.877,8.877,0,0,0-3.736,2.392c-1.3,1.589-1.507,3.785-1.638,5.833-.546,7.81-1.032,15.838,1.425,23.282a4.138,4.138,0,0,1,2.845-1.589,12.546,12.546,0,0,0,3.277-.792,4.429,4.429,0,0,0,2.185-2.818,5.281,5.281,0,0,0-.4-3.583c-.6-1.24-1.638-2.436-1.4-3.785s1.89-2.217,2.272-3.6c.661-2.4-2.731-4.549-2.026-6.942a3.359,3.359,0,0,1,1.819-1.944c.819-.41,1.72-.639,2.551-1.027a7.526,7.526,0,0,0,4.194-7.488Z" transform="translate(-46.07 -166.879)" fill="#263238"/>
        <path id="Path_1475" data-name="Path 1475" d="M149.906,262.23l-7.526,11.709a3.009,3.009,0,0,0,2.643,1.311c1.813-.076,4.3-4.6,4.6-5.511s-.1-1.8.164-2.409a7.539,7.539,0,0,0,.164-2.283C149.911,265.146,151.577,262.918,149.906,262.23Z" transform="translate(-81.094 -208.225)" fill="#ffbe9d"/>
        <path id="Path_1476" data-name="Path 1476" d="M138.57,267.083l3.921-15.505a1.78,1.78,0,0,1,.836-1.092l5.7-3.25a.786.786,0,0,1,1.021.224h0a.786.786,0,0,1,.126.65l-4.151,16.319Z" transform="translate(-79.365 -201.374)" fill="#263238"/>
        <path id="Path_1477" data-name="Path 1477" d="M129.018,288l9.1-16.816-3.43-4.44-12.813,9.721,3.359,9.241Z" transform="translate(-71.79 -210.272)" fill="#3370cc"/>
        <path id="Path_1478" data-name="Path 1478" d="M150.318,271.3a3.927,3.927,0,0,0,.175-.694,5.173,5.173,0,0,0-.191-1.944v-.076a1.049,1.049,0,0,0,.115-.863,1.671,1.671,0,0,0-.639-.792l-.1-.066.066-.1,1.032-1.54a1.983,1.983,0,0,0,.24-.4.546.546,0,0,0-.033-.4,1.933,1.933,0,0,0-.634-.721l-.131-.093.1-.12c.279-.317.59-.634.9-.956a20.34,20.34,0,0,0,1.5-1.731,5.215,5.215,0,0,0,.546-.89,1.355,1.355,0,0,0,.137-.448c0-.142-.055-.218-.137-.235h-.033a1.011,1.011,0,0,0-.513.082,5.671,5.671,0,0,0-.546.235c-.333.18-.644.366-.928.546-.546.371-1.065.721-1.464,1.01l-.934.677a1.542,1.542,0,0,1-.344.229,1.555,1.555,0,0,1,.295-.289c.2-.18.5-.431.89-.743s.868-.672,1.436-1.06c.289-.2.6-.393.939-.584a4.586,4.586,0,0,1,.546-.257,1.092,1.092,0,0,1,.683-.093h-.033a.448.448,0,0,1,.382.5,1.585,1.585,0,0,1-.153.546,5.287,5.287,0,0,1-.579.945,18.73,18.73,0,0,1-1.518,1.764c-.311.322-.623.639-.9.95v-.213a2.184,2.184,0,0,1,.732.852.83.83,0,0,1,.033.6,2.075,2.075,0,0,1-.273.453c-.371.546-.726,1.06-1.06,1.54v-.175a1.89,1.89,0,0,1,.71.928,1.262,1.262,0,0,1-.147,1.032v-.076a4.855,4.855,0,0,1,.1,2.01,1.972,1.972,0,0,1-.169.519C150.361,271.246,150.329,271.3,150.318,271.3Z" transform="translate(-83.876 -206.739)" fill="#eb996e"/>
        <path id="Path_1479" data-name="Path 1479" d="M152.659,247.72a2.31,2.31,0,0,1-.47.328c-.311.2-.765.475-1.333.814l-1.993,1.2-1.18.683a5.46,5.46,0,0,0-1.191.781,2.436,2.436,0,0,0-.6,1.229c-.12.459-.235.9-.344,1.322l-.6,2.234c-.175.634-.322,1.147-.431,1.5a2.239,2.239,0,0,1-.191.546,1.982,1.982,0,0,1,.087-.546c.071-.36.191-.879.339-1.518s.339-1.42.546-2.25q.153-.639.328-1.327a2.731,2.731,0,0,1,.666-1.365,6.094,6.094,0,0,1,1.256-.819l1.191-.666,2.021-1.092c.579-.317,1.049-.546,1.376-.732a2.141,2.141,0,0,1,.519-.311Z" transform="translate(-81.979 -201.64)" fill="#455a64"/>
        <path id="Path_1480" data-name="Path 1480" d="M152.572,256.982c-.142.339-.158.655-.038.7s.333-.18.475-.519.158-.65.038-.7S152.714,256.649,152.572,256.982Z" transform="translate(-85.666 -205.604)" fill="#fff"/>
        <path id="Path_1481" data-name="Path 1481" d="M100.75,240.21h0a15.838,15.838,0,0,1,8.968,8.165l12.223,26.007,10.53,4.271-9.284,2.671-8.247-6.057Z" transform="translate(-62.2 -198.231)" fill="#3370cc"/>
        <path id="Path_1482" data-name="Path 1482" d="M109.263,276.894l-4.435,3.419L82.7,257.55,70.05,234.7l1.464-4.249,9.781,4.074,3.5,5.177.781-6.554.628.879,1.021,2.769s9.6,7.99,11.677,14.32c1.7,5.3,1.185,16.226,2.25,19.175Z" transform="translate(-48.267 -193.802)" fill="#fafafa"/>
        <path id="Path_1483" data-name="Path 1483" d="M57.465,235.811c-.147.442-9.459,4.184-9.9,7.444s6.69,28.471,6.69,28.471l11.311,9.994h29.05L85.4,264.467a43.812,43.812,0,0,0-7.46-10.137c-2.731-2.763-6.008-6.182-7.723-8.22-1.841-2.212-9.645-12.561-9.645-12.561Z" transform="translate(-38.052 -195.209)" fill="#3370cc"/>
        <path id="Path_1484" data-name="Path 1484" d="M76.38,239.185a11.52,11.52,0,0,1,1.638.737c1,.492,2.37,1.18,3.878,1.961l1.715.9-.2.131a12.409,12.409,0,0,1,.18-3.048,4.189,4.189,0,0,1,.322-1.152,11.868,11.868,0,0,1-.153,1.18,14.932,14.932,0,0,0-.082,3v.24l-.213-.109-1.693-.874c-1.507-.781-2.862-1.5-3.823-2.037a11.936,11.936,0,0,1-1.573-.923Z" transform="translate(-51.14 -197.55)" fill="#263238"/>
        <path id="Path_1485" data-name="Path 1485" d="M107.953,265.868a5.5,5.5,0,0,1-.464-.737l-1.185-2.059c-.994-1.742-2.381-4.14-3.943-6.767s-3.02-4.981-4.074-6.685L97.036,247.6a5.27,5.27,0,0,1-.426-.759,4.626,4.626,0,0,1,.546.7c.322.459.776,1.131,1.327,1.972,1.092,1.677,2.578,4.02,4.151,6.652s2.922,5.046,3.872,6.81c.481.885.857,1.6,1.092,2.1a5.32,5.32,0,0,1,.355.792Z" transform="translate(-60.321 -201.24)" fill="#263238"/>
        <g id="Group_949" data-name="Group 949" transform="translate(42.509 70.536)" opacity="0.3">
          <path id="Path_1486" data-name="Path 1486" d="M108.65,304.165a15.152,15.152,0,0,0,5.1.251,4.861,4.861,0,0,0,3.856-3.009,3.2,3.2,0,0,1,.628-1.458c.65-.6,1.688-.229,2.567-.311A3.217,3.217,0,0,0,123.139,298a9.465,9.465,0,0,0,.978-2.78,4.216,4.216,0,0,0,.175-1.447,1.453,1.453,0,0,0-.754-1.174c-.666-.3-1.42.137-2.01.546A154.028,154.028,0,0,0,108,304.591" transform="translate(-108 -292.498)"/>
        </g>
        <path id="Path_1487" data-name="Path 1487" d="M125.352,269.738s1.666-3.823,2.551-4.369,5.3-3.108,5.3-3.108l-.546,2.1,4.32-3c.546-.355,3.61-3.157,4.156-2.064.4.786-2.119,2.862-2.458,3.326-.841,1.152-.546,1.049-.546,1.049s.912.546.453,1.365a18.327,18.327,0,0,1-1.234,1.813s1.2.426.5,1.988a4.194,4.194,0,0,1,.12,2c-.2,1.169-2.3,3.381-2.3,3.381l-10.541,5-4.238-7.187Z" transform="translate(-71.341 -206.782)" fill="#ffbe9d"/>
        <path id="Path_1488" data-name="Path 1488" d="M67.087,255.743l6.739,14.385,14.97-6.488s6.2,3.616,5.341,7.57l-13.49,11.043a12.048,12.048,0,0,1-9.115,2.649h0a12.059,12.059,0,0,1-8.613-5.347l-9.743-14.812-5.461-8.908a8.312,8.312,0,0,1,.229-9.213,6.712,6.712,0,0,1,1.922-1.808C52.308,243.335,59.539,242.69,67.087,255.743Z" transform="translate(-37.548 -199.974)" fill="#3370cc"/>
        <path id="Path_1489" data-name="Path 1489" d="M141.172,267a12.6,12.6,0,0,1-2.185,1.513,13.256,13.256,0,0,1-2.338,1.283,25.718,25.718,0,0,1,4.522-2.8Z" transform="translate(-78.493 -210.39)" fill="#eb996e"/>
        <path id="Path_1490" data-name="Path 1490" d="M149.227,266.74a14.987,14.987,0,0,1-1.961,2.119,16.173,16.173,0,0,1-2.146,1.928,15.709,15.709,0,0,1,1.961-2.119,16.1,16.1,0,0,1,2.146-1.928Z" transform="translate(-82.338 -210.272)" fill="#eb996e"/>
        <path id="Path_1491" data-name="Path 1491" d="M149.913,272.68a4.713,4.713,0,0,1-.918,1.283c-.546.661-1.092,1.163-1.125,1.092a4.79,4.79,0,0,1,.923-1.289A4.718,4.718,0,0,1,149.913,272.68Z" transform="translate(-83.586 -212.968)" fill="#eb996e"/>
        <path id="Path_1492" data-name="Path 1492" d="M151.083,276.675c.06.049-.175.4-.47.825s-.546.765-.617.726.093-.442.4-.879S151.012,276.626,151.083,276.675Z" transform="translate(-84.543 -214.779)" fill="#eb996e"/>
        <path id="Path_1493" data-name="Path 1493" d="M86.422,285.193s0-.027.066-.066l.213-.18.847-.683,3.233-2.556,11.546-9.033-.049.093a5.653,5.653,0,0,0-.421-2.185,9.177,9.177,0,0,0-1.24-2.026,15.839,15.839,0,0,0-3.823-3.277h.126l-7.739,3.364-7.231,3.091-.12.049-.06-.115c-1.983-3.9-3.823-7.575-5.669-10.764-.923-1.6-1.835-3.08-2.7-4.462s-1.638-2.66-2.452-3.763a13.9,13.9,0,0,0-4.653-4.315c-.322-.191-.623-.339-.885-.464s-.475-.229-.661-.306l-.4-.18a.7.7,0,0,1-.137-.066,13.342,13.342,0,0,1,4.413,2.54A15.837,15.837,0,0,1,71.1,252.62c.819,1.092,1.638,2.381,2.485,3.757s1.8,2.851,2.731,4.451c1.879,3.189,3.719,6.86,5.713,10.759l-.18-.066,7.2-3.135,7.739-3.359.066-.027.06.038a16.078,16.078,0,0,1,3.889,3.353,9.743,9.743,0,0,1,1.273,2.092,6.128,6.128,0,0,1,.431,2.316v.055l-.049.038-11.6,8.929-3.277,2.5-.868.655-.229.164Z" transform="translate(-45.616 -201.472)" fill="#263238"/>
        <path id="Path_1494" data-name="Path 1494" d="M94.921,296.068c-.082-.033.333-1.06.546-2.387s.218-2.436.306-2.441a5.642,5.642,0,0,1,0,2.49,5.56,5.56,0,0,1-.852,2.338Z" transform="translate(-59.55 -221.391)" fill="#263238"/>
        <path id="Path_1495" data-name="Path 1495" d="M237.776,377.45l7.826,9.8s12.594-4.659,14.2-2.987l-18.454,15.876L228.53,385.4Z" transform="translate(-120.193 -260.518)" fill="#3370cc"/>
        <g id="Group_950" data-name="Group 950" transform="translate(118.859 130.438)" opacity="0.6">
          <path id="Path_1496" data-name="Path 1496" d="M247.951,402.584a.988.988,0,0,0,.218,1.305.956.956,0,0,0,1.3-.2,1.054,1.054,0,0,0-.24-1.387.994.994,0,0,0-1.327.366" transform="translate(-247.796 -402.18)" fill="#fff"/>
        </g>
        <g id="Group_951" data-name="Group 951" transform="translate(119.92 123.344)" opacity="0.6">
          <path id="Path_1497" data-name="Path 1497" d="M250.974,405.471l-1.234-1.54L267.9,389.283s1.131-.349,1.535.311Z" transform="translate(-249.74 -389.191)" fill="#fff"/>
        </g>
        <path id="Path_1498" data-name="Path 1498" d="M259.33,394.747c.076.093-.339.546-.546,1.191s-.1,1.256-.218,1.289-.426-.6-.175-1.409S259.281,394.649,259.33,394.747Z" transform="translate(-133.702 -268.361)" fill="#263238"/>
        <path id="Path_1499" data-name="Path 1499" d="M264.537,393.17c.093.071-.164.546-.142,1.207s.279,1.12.186,1.2-.59-.388-.6-1.191S264.46,393.072,264.537,393.17Z" transform="translate(-136.282 -267.647)" fill="#263238"/>
        <path id="Path_1500" data-name="Path 1500" d="M269.956,393.906c-.066.087-.579-.257-.776-.945s.066-1.251.164-1.212.071.546.235,1.092S270.038,393.818,269.956,393.906Z" transform="translate(-138.611 -267.007)" fill="#263238"/>
        <path id="Path_1501" data-name="Path 1501" d="M254.925,390.972c.033.115-.486.35-.967.819s-.737.972-.852.939,0-.688.546-1.234S254.909,390.879,254.925,390.972Z" transform="translate(-131.329 -266.639)" fill="#263238"/>
        <g id="Group_952" data-name="Group 952" transform="translate(110.062 118.876)" opacity="0.3">
          <path id="Path_1502" data-name="Path 1502" d="M240.762,381.01l1.393,1.748-9.143,7.712-1.322-1.518Z" transform="translate(-231.69 -381.01)"/>
        </g>
        <path id="Path_1503" data-name="Path 1503" d="M250.317,387.293c.038.033-.273.393-.928.786a5.42,5.42,0,0,1-1.218.546,6.457,6.457,0,0,1-.776.175,1.555,1.555,0,0,1-.464,0,.546.546,0,0,1-.453-.448.644.644,0,0,1,.218-.546,1.372,1.372,0,0,1,.388-.251,4.342,4.342,0,0,1,2.075-.47,2.026,2.026,0,0,1,1.191.284c0,.066-.47-.038-1.185,0a5.157,5.157,0,0,0-1.223.246,4.49,4.49,0,0,0-.672.295c-.24.115-.41.257-.382.388,0,.049,0,.06.109.082a1.284,1.284,0,0,0,.344,0,7.138,7.138,0,0,0,.726-.137,7.014,7.014,0,0,0,1.185-.426A7.88,7.88,0,0,1,250.317,387.293Z" transform="translate(-128.338 -264.889)" fill="#263238"/>
        <path id="Path_1504" data-name="Path 1504" d="M251.8,384.835a2.074,2.074,0,0,1-1.01-.688,3.922,3.922,0,0,1-.989-1.884,1,1,0,0,1,.191-.972.546.546,0,0,1,.606-.071,1.637,1.637,0,0,1,.388.257,2.774,2.774,0,0,1,.956,1.917c.055.786-.229,1.218-.268,1.2a8.741,8.741,0,0,0,0-1.163,2.731,2.731,0,0,0-.453-1.12,2.352,2.352,0,0,0-.475-.519c-.2-.169-.4-.268-.464-.186a.7.7,0,0,0-.06.584,3.413,3.413,0,0,0,.2.694,4.369,4.369,0,0,0,.612,1.092C251.447,384.524,251.834,384.775,251.8,384.835Z" transform="translate(-129.822 -262.201)" fill="#263238"/>
        <path id="Path_1505" data-name="Path 1505" d="M219.556,432.74l-.486,12.824s12.873,4.8,13.015,7.182l-24.9-.049-.06-20.016Z" transform="translate(-110.476 -285.584)" fill="#3370cc"/>
        <g id="Group_953" data-name="Group 953" transform="translate(100.171 158.863)" opacity="0.6">
          <path id="Path_1506" data-name="Path 1506" d="M214.3,454.25a1.016,1.016,0,0,0-.7,1.158.989.989,0,0,0,1.147.71,1.092,1.092,0,0,0,.737-1.234,1.016,1.016,0,0,0-1.267-.606" transform="translate(-213.579 -454.227)" fill="#fff"/>
        </g>
        <g id="Group_954" data-name="Group 954" transform="translate(96.704 165.091)" opacity="0.6">
          <path id="Path_1507" data-name="Path 1507" d="M207.23,467.651l.076-2.021,23.828.8s1.092.486.983,1.267Z" transform="translate(-207.23 -465.63)" fill="#fff"/>
        </g>
        <path id="Path_1508" data-name="Path 1508" d="M227.849,455.907c0,.12-.612.175-1.212.546s-.918.9-1.032.847.071-.748.808-1.207A1.4,1.4,0,0,1,227.849,455.907Z" transform="translate(-118.851 -296.075)" fill="#263238"/>
        <path id="Path_1509" data-name="Path 1509" d="M233.144,457.966c0,.115-.5.322-.918.836s-.546,1.06-.655,1.054-.2-.694.333-1.322S233.139,457.868,233.144,457.966Z" transform="translate(-121.536 -297.042)" fill="#263238"/>
        <path id="Path_1510" data-name="Path 1510" d="M237.1,462.017c-.109,0-.279-.584.038-1.251s.879-.928.934-.825-.306.453-.546,1S237.22,462.006,237.1,462.017Z" transform="translate(-124.018 -297.947)" fill="#263238"/>
        <path id="Path_1511" data-name="Path 1511" d="M227.2,450.319c-.055.109-.612-.06-1.3,0s-1.223.262-1.283.158.453-.546,1.262-.579S227.259,450.22,227.2,450.319Z" transform="translate(-118.415 -293.398)" fill="#263238"/>
        <g id="Group_955" data-name="Group 955" transform="translate(96.649 149.695)" opacity="0.3">
          <path id="Path_1512" data-name="Path 1512" d="M219.462,437.44l-.082,2.283-12.239-.131-.011-2.064Z" transform="translate(-207.13 -437.44)"/>
        </g>
        <path id="Path_1513" data-name="Path 1513" d="M226.3,444.254a2.283,2.283,0,0,1-1.245,0,5.724,5.724,0,0,1-2.021-.787,1.425,1.425,0,0,1-.377-.295.546.546,0,0,1-.055-.644.683.683,0,0,1,.546-.279,1.639,1.639,0,0,1,.464.066,4.413,4.413,0,0,1,1.928,1.027c.573.546.77.989.726,1.01s-.333-.339-.917-.781a5.155,5.155,0,0,0-1.092-.628,4.2,4.2,0,0,0-.715-.224c-.262-.071-.486-.071-.546.044s-.027.065.027.142a1.228,1.228,0,0,0,.279.213,5.419,5.419,0,0,0,.655.377,6.719,6.719,0,0,0,1.207.464,9.245,9.245,0,0,1,1.136.295Z" transform="translate(-117.467 -289.928)" fill="#263238"/>
        <path id="Path_1514" data-name="Path 1514" d="M228.875,442.954a1.955,1.955,0,0,1-.328-1.2,4.118,4.118,0,0,1,.492-2.125,1.038,1.038,0,0,1,.8-.628.584.584,0,0,1,.546.35,1.839,1.839,0,0,1,.131.459,2.845,2.845,0,0,1-.546,2.125c-.492.644-1,.792-1.01.748a5.244,5.244,0,0,0,.759-.912,2.867,2.867,0,0,0,.4-1.174,2.676,2.676,0,0,0,0-.721c-.038-.262-.137-.475-.235-.448a.928.928,0,0,0-.442.4,4.12,4.12,0,0,0-.306.677,4.369,4.369,0,0,0-.246,1.245C228.793,442.484,228.94,442.938,228.875,442.954Z" transform="translate(-120.2 -288.453)" fill="#263238"/>
        <path id="Path_1515" data-name="Path 1515" d="M206.77,321.75,231.412,354.5l-11.529,9.9-11.862-15.516Z" transform="translate(-110.318 -235.238)" fill="#263238"/>
        <path id="Path_1516" data-name="Path 1516" d="M111.23,314.707s39.65-12.081,43.282-11.928,10.524,13.266,10.524,13.266l-11.13-.4c-2.856,7.007-8.132,14.2-14.074,21.485l-22.758-1.06Z" transform="translate(-66.957 -226.628)" fill="#263238"/>
        <path id="Path_1517" data-name="Path 1517" d="M155.379,307.137c0,.076-4.052,1.354-9.1,2.856s-9.159,2.654-9.181,2.578,4.047-1.354,9.1-2.851S155.358,307.061,155.379,307.137Z" transform="translate(-78.698 -228.605)" fill="#263238"/>
        <path id="Path_1518" data-name="Path 1518" d="M176.026,325.94h11.13a13.108,13.108,0,0,1,12.348,8.738h0a20.207,20.207,0,0,1,1.125,7.679l-.868,45.33H184.78l-.273-14.473-1.9-27.509-12.971.546-7.351-.459Z" transform="translate(-90.13 -237.14)" fill="#263238"/>
        <path id="Path_1519" data-name="Path 1519" d="M176.354,325.53a7.366,7.366,0,0,1-.213.956,23.872,23.872,0,0,1-.786,2.556,25.758,25.758,0,0,1-1.638,3.6,28.811,28.811,0,0,1-2.731,4.036,73.252,73.252,0,0,1-6.051,6.4l-1.922,1.851a6.006,6.006,0,0,1-.732.65,7.355,7.355,0,0,1,.65-.732c.431-.459,1.092-1.092,1.862-1.911a86.93,86.93,0,0,0,5.969-6.434,29.344,29.344,0,0,0,4.4-7.531c.393-1.049.694-1.911.868-2.512a6.093,6.093,0,0,1,.322-.928Z" transform="translate(-90.126 -236.954)" fill="#455a64"/>
        <path id="Path_1520" data-name="Path 1520" d="M201.536,326.1a19.9,19.9,0,0,1-2.026-.1c-1.245-.071-2.971-.12-4.872-.082s-3.626.153-4.877.235a15.978,15.978,0,0,1-2.021.1,2.186,2.186,0,0,1,.546-.115c.344-.055.847-.12,1.469-.191,1.245-.131,2.971-.279,4.915-.317a42.386,42.386,0,0,1,4.915.169c.623.055,1.125.126,1.475.18a2.244,2.244,0,0,1,.475.115Z" transform="translate(-101.681 -236.999)" fill="#455a64"/>
        <path id="Path_1521" data-name="Path 1521" d="M201.4,392.924a2.108,2.108,0,0,1-.044-.377c0-.279-.033-.634-.06-1.092-.044-.978-.1-2.332-.175-3.987-.147-3.364-.35-8.012-.672-13.14s-.7-9.771-.983-13.108c-.137-1.638-.246-3-.322-3.976-.033-.448-.055-.808-.076-1.092a1.559,1.559,0,0,1,0-.382,2.911,2.911,0,0,1,.06.377l.131,1.092c.1.967.24,2.316.415,3.965.328,3.353.737,8,1.065,13.108s.492,9.787.59,13.157c.033,1.638.066,3.009.087,3.987v1.092A1.681,1.681,0,0,1,201.4,392.924Z" transform="translate(-106.818 -250.679)" fill="#263238"/>
        <path id="Path_1522" data-name="Path 1522" d="M232.069,352.84c.082,0,.027,10.377-.115,23.173s-.328,23.173-.4,23.173-.027-10.377.12-23.178S231.993,352.84,232.069,352.84Z" transform="translate(-121.548 -249.349)" fill="#455a64"/>
        <path id="Path_1523" data-name="Path 1523" d="M205.171,349.74a15.844,15.844,0,0,0-5.991,3.692,3,3,0,0,1,.655-.825,10.376,10.376,0,0,1,4.3-2.638,3.086,3.086,0,0,1,1.032-.229Z" transform="translate(-106.873 -247.942)" fill="#263238"/>
        <g id="Group_956" data-name="Group 956" transform="translate(72.16 89.3)" opacity="0.3">
          <path id="Path_1524" data-name="Path 1524" d="M162.29,346.186a13.056,13.056,0,0,0,8.929-1.983,12.015,12.015,0,0,0,5.243-7.1c.333-1.305.431-2.66.765-3.965a5.953,5.953,0,0,1,2.026-3.424c1.267-.945,4.369-1.546,5.319-2.813,0-.186-3.7.24-4.943.311a30.439,30.439,0,0,1-3.572.257,33.637,33.637,0,0,1-1.311,3.861,75.919,75.919,0,0,1-12.458,14.877" transform="translate(-162.29 -326.855)"/>
        </g>
        <path id="Path_1525" data-name="Path 1525" d="M49.16,420.94,53.376,448.5h4.178L55.5,421.049Z" transform="translate(-38.786 -280.256)" fill="#263238"/>
        <path id="Path_1526" data-name="Path 1526" d="M184.95,421.049V448.5h4.413l1.644-27.564Z" transform="translate(-100.415 -280.256)" fill="#263238"/>
        <path id="Path_1527" data-name="Path 1527" d="M39.791,265s-5.9.235-7.712,2.731c-3.184,4.369-1.393,8.149-1.573,9.437s10.033,73,10.033,73h4.205l75.991.7,3.67-8.864-1.759-23.981-20.322.087S94,294.224,86.727,292.63c-4.915-1.092-16.5-.7-23.484-.339a9.721,9.721,0,0,1-8.667-4.429Z" transform="translate(-30.165 -209.482)" fill="#455a64"/>
        <path id="Path_1528" data-name="Path 1528" d="M110.573,348.71s-.421.055-1.229.093-2,.066-3.539.076c-3.086.044-7.559.055-13.108.049-11.147,0-26.685-.093-44.238-.246h-.115v-.109c-.317-1.5-.639-3.047-.967-4.615s-.639-3.173-.961-4.784c-3.823-19.454-6.051-37.28-7.253-50.207-.606-6.461-.967-11.7-1.2-15.33-.1-1.8-.18-3.206-.229-4.173,0-.47-.038-.83-.055-1.092a2.025,2.025,0,0,1,0-.371,2.716,2.716,0,0,0,.038.371c.038.246.044.617.076,1.092.066.961.164,2.365.284,4.167.262,3.621.655,8.858,1.283,15.319,1.218,12.911,3.463,30.721,7.275,50.164q.481,2.419.961,4.779t.967,4.615l-.137-.109,44.238.344,13.108.033h3.539c.4,0,.7-.033.912-.033Z" transform="translate(-33.574 -210.844)" fill="#263238"/>
        <path id="Path_1529" data-name="Path 1529" d="M166.607,394.651a1.35,1.35,0,0,1,.033-.344c.038-.251.082-.573.142-.967s.153-.934.218-1.535.175-1.278.224-2.037.147-1.578.18-2.474.06-1.841.076-2.845a60.676,60.676,0,0,0-.382-6.51,62.635,62.635,0,0,0-1.125-6.423c-.459-1.955-.95-3.692-1.425-5.139-.213-.726-.459-1.365-.655-1.939s-.377-1.06-.546-1.453l-.339-.918a1.305,1.305,0,0,1-.1-.328,1.711,1.711,0,0,1,.153.306l.388.9a13.877,13.877,0,0,1,.546,1.442c.175.568.47,1.207.7,1.933.5,1.436,1.016,3.179,1.491,5.139a59.871,59.871,0,0,1,1.152,6.45,58.269,58.269,0,0,1,.36,6.554c0,1.01-.033,1.966-.1,2.862s-.131,1.726-.213,2.48-.186,1.442-.273,2.037-.175,1.092-.262,1.529-.147.71-.2.961A1.641,1.641,0,0,1,166.607,394.651Z" transform="translate(-90.412 -253.388)" fill="#263238"/>
        <path id="Path_1530" data-name="Path 1530" d="M67.69,321.637A2.042,2.042,0,0,1,68,321.38c.235-.18.546-.41.918-.7l.672-.5c.251-.169.546-.333.847-.519a18.767,18.767,0,0,1,2.114-1.18l1.267-.6c.437-.218.923-.377,1.409-.579s.994-.41,1.529-.579l1.638-.546a47.619,47.619,0,0,1,7.564-1.573,54.886,54.886,0,0,1,7.7-.47c1.185,0,2.31.076,3.364.115a27.731,27.731,0,0,1,2.916.289,38.985,38.985,0,0,1,4.173.77l1.092.306a2.563,2.563,0,0,1,.382.126,2.063,2.063,0,0,1-.4-.071l-1.125-.257c-.972-.2-2.4-.47-4.173-.672-.885-.115-1.862-.169-2.906-.257a31.815,31.815,0,0,0-3.353-.087,58.063,58.063,0,0,0-7.646.486,49.359,49.359,0,0,0-7.51,1.54l-1.638.508c-.546.164-1.032.382-1.524.546s-.972.35-1.409.546-.863.4-1.267.6a20.614,20.614,0,0,0-2.119,1.136c-.306.175-.6.333-.857.492l-.677.481-.945.655A2.339,2.339,0,0,1,67.69,321.637Z" transform="translate(-47.196 -231.783)" fill="#263238"/>
        <path id="Path_1531" data-name="Path 1531" d="M101.789,335a.5.5,0,0,1-.055.18c-.055.12-.093.289-.186.519a7.155,7.155,0,0,1-1.12,1.786,9.208,9.208,0,0,1-2.627,2.064,13.108,13.108,0,0,1-1.933.8,13.341,13.341,0,0,1-2.3.47,18.9,18.9,0,0,1-5.352-.306c-1.906-.339-3.889-.89-6.008-1.393a26.679,26.679,0,0,0-6.674-.885,12.632,12.632,0,0,0-3.5.546,10.825,10.825,0,0,0-3.244,1.638,18.958,18.958,0,0,0-4.741,5.4c-1.251,1.983-2.239,4.031-3.277,5.926a29.649,29.649,0,0,1-3.419,5.1,12.665,12.665,0,0,1-4.2,3.315,10.677,10.677,0,0,1-4.3,1.054,8.045,8.045,0,0,1-3.277-.612,6.482,6.482,0,0,1-1.092-.584c-.284-.213-.546-.4-.7-.546l-.377-.4c-.087-.093-.126-.142-.126-.142a1.458,1.458,0,0,1,.142.12l.4.377c.18.153.426.328.7.546a6.757,6.757,0,0,0,1.092.546,8,8,0,0,0,3.228.546,10.693,10.693,0,0,0,4.222-1.038,12.562,12.562,0,0,0,4.112-3.277,29.7,29.7,0,0,0,3.364-5.09c1.043-1.89,2.032-3.943,3.277-5.948a19.164,19.164,0,0,1,4.812-5.462,11.273,11.273,0,0,1,3.321-1.682,13.07,13.07,0,0,1,3.577-.546,26.825,26.825,0,0,1,6.745.907c2.1.513,4.08,1.092,5.964,1.42a19.209,19.209,0,0,0,5.3.333,13.01,13.01,0,0,0,2.267-.442,12.857,12.857,0,0,0,1.917-.77,9.285,9.285,0,0,0,2.616-1.993A8.115,8.115,0,0,0,101.789,335Z" transform="translate(-36.117 -241.252)" fill="#fff"/>
        <path id="Path_1532" data-name="Path 1532" d="M131.132,394.606l-.24.06-.7.142a8.99,8.99,0,0,0-1.092.344,5.861,5.861,0,0,0-.683.295,6.613,6.613,0,0,0-.754.388,18.965,18.965,0,0,0-3.5,2.594c-1.267,1.147-2.622,2.551-4.282,3.932a15.526,15.526,0,0,1-2.807,1.906,11.688,11.688,0,0,1-1.666.721l-.9.246a8.79,8.79,0,0,1-.934.158,11.6,11.6,0,0,1-3.938-.2,16.646,16.646,0,0,1-3.921-1.458,34.289,34.289,0,0,1-7.247-5.227,61.815,61.815,0,0,0-7.368-6.084,18.679,18.679,0,0,0-4.309-2.146,12.327,12.327,0,0,0-4.6-.639,13.546,13.546,0,0,0-4.369,1.049,27.048,27.048,0,0,0-3.85,2.015c-2.414,1.491-4.609,3.086-6.843,4.3A28.1,28.1,0,0,1,50.4,400.154a22.186,22.186,0,0,1-3.67-.737,1.96,1.96,0,0,1,.246.038l.7.153c.617.131,1.54.3,2.731.437a28.444,28.444,0,0,0,10.087-.694,27.85,27.85,0,0,0,6.51-2.561c2.185-1.218,4.4-2.813,6.821-4.32a27.226,27.226,0,0,1,3.883-2.043,13.847,13.847,0,0,1,4.457-1.092,12.528,12.528,0,0,1,4.7.65,18.492,18.492,0,0,1,4.369,2.185,60.918,60.918,0,0,1,7.4,6.111,34.146,34.146,0,0,0,7.182,5.2,16.232,16.232,0,0,0,3.861,1.5,11.245,11.245,0,0,0,3.85.208,8.458,8.458,0,0,0,.918-.153l.885-.229a12.092,12.092,0,0,0,1.638-.7,14.982,14.982,0,0,0,2.78-1.868c1.638-1.36,3.026-2.731,4.3-3.889a18.716,18.716,0,0,1,3.534-2.611,6.23,6.23,0,0,1,.77-.377,4.82,4.82,0,0,1,.694-.289,10.659,10.659,0,0,1,1.131-.322l.71-.115Z" transform="translate(-37.683 -265.904)" fill="#fff"/>
        <path id="Path_1533" data-name="Path 1533" d="M50.418,289.72a2.632,2.632,0,0,1-.147.688,9.4,9.4,0,0,1-.732,1.786,10.5,10.5,0,0,1-10.644,5.565,9.23,9.23,0,0,1-1.879-.421,2.763,2.763,0,0,1-.655-.273,18.339,18.339,0,0,0,2.556.5A10.71,10.71,0,0,0,49.375,292.1,19.113,19.113,0,0,0,50.418,289.72Z" transform="translate(-32.977 -220.702)" fill="#fff"/>
      </g>
      <g id="freepik--Notifications--inject-6" transform="translate(85.237 70.382)">
        <rect id="Rectangle_91" data-name="Rectangle 91" width="110.835" height="35.532" rx="6.94" transform="translate(0.131 0.246)" fill="#fff"/>
        <path id="Path_1534" data-name="Path 1534" d="M285.959,193.648a7.028,7.028,0,0,0,.732-.087,3.741,3.741,0,0,0,1.879-1,3.6,3.6,0,0,0,.874-1.305,4.467,4.467,0,0,0,.268-1.879c0-1.393,0-3,0-4.812V163.129a8.783,8.783,0,0,0-.131-2.185,3.686,3.686,0,0,0-3.239-2.731c-.77-.033-1.584,0-2.392,0l-101.212.044a3.654,3.654,0,0,0-1.709.426,3.692,3.692,0,0,0-1.311,1.169,3.742,3.742,0,0,0-.612,1.638c-.049.579,0,1.212,0,1.813v26.674a3.725,3.725,0,0,0,.426,1.584,3.681,3.681,0,0,0,2.55,1.879,11.094,11.094,0,0,0,1.638.06h14.855l45.489.033,30.666.044,8.34.027h-8.34l-30.666.044-45.489.033H183.742a10.65,10.65,0,0,1-1.709-.066,3.916,3.916,0,0,1-3.222-3.719c0-.584,0-1.152,0-1.731V163.206c0-.617,0-1.2.027-1.846a3.941,3.941,0,0,1,3.91-3.49l101.185.044h2.409a3.889,3.889,0,0,1,3.4,2.867,3.975,3.975,0,0,1,.131,1.131v27.34a4.451,4.451,0,0,1-.284,1.906,3.823,3.823,0,0,1-2.813,2.3,3.919,3.919,0,0,1-.546.06Z" transform="translate(-178.81 -157.87)" fill="#263238"/>
        <path id="Path_1535" data-name="Path 1535" d="M367.255,169.268a.137.137,0,0,1-.1-.235l2.731-2.616a.142.142,0,0,1,.2,0,.136.136,0,0,1,0,.191l-2.731,2.616a.131.131,0,0,1-.1.044Z" transform="translate(-264.274 -161.731)" fill="#263238"/>
        <path id="Path_1536" data-name="Path 1536" d="M369.992,169.275a.12.12,0,0,1-.093-.038l-2.7-2.638a.131.131,0,0,1,0-.191.137.137,0,0,1,.191,0l2.731,2.643a.136.136,0,0,1,0,.191A.131.131,0,0,1,369.992,169.275Z" transform="translate(-264.291 -161.727)" fill="#263238"/>
        <path id="Path_1537" data-name="Path 1537" d="M209.591,189.72l-1.092-1.578a5.631,5.631,0,0,1-1.032-3.25v-3.55a5.784,5.784,0,0,0-4.915-5.718v-1.693a.781.781,0,0,0-.781-.781h0a.776.776,0,0,0-.776.781v1.638a5.8,5.8,0,0,0-5.112,5.751V185a5.647,5.647,0,0,1-1.207,3.484l-.956,1.218Z" transform="translate(-185.577 -164.805)" fill="#3370cc"/>
        <path id="Path_1538" data-name="Path 1538" d="M205.571,206.976a2.5,2.5,0,0,0,2.6-.448,2.436,2.436,0,0,0,.655-1l-4.626-.033A2.507,2.507,0,0,0,205.571,206.976Z" transform="translate(-190.333 -179.482)" fill="#3370cc"/>
        <path id="Path_1539" data-name="Path 1539" d="M290.916,180.182c0,.076-12.414.142-27.728.142s-27.728-.066-27.728-.142,12.414-.142,27.728-.142S290.916,180.106,290.916,180.182Z" transform="translate(-204.521 -167.932)" fill="#263238"/>
        <path id="Path_1540" data-name="Path 1540" d="M303.935,192.472c0,.076-15.341.142-34.26.142s-34.265-.066-34.265-.142,15.336-.142,34.265-.142S303.935,192.39,303.935,192.472Z" transform="translate(-204.498 -173.51)" fill="#e0e0e0"/>
        <path id="Path_1541" data-name="Path 1541" d="M303.935,199.882c0,.076-15.341.142-34.26.142s-34.265-.066-34.265-.142,15.336-.142,34.265-.142S303.935,199.773,303.935,199.882Z" transform="translate(-204.498 -176.873)" fill="#e0e0e0"/>
        <rect id="Rectangle_92" data-name="Rectangle 92" width="76.149" height="24.413" rx="6.94" transform="translate(17.083 41.327)" fill="#fafafa"/>
        <path id="Path_1542" data-name="Path 1542" d="M282.328,257.83a3.4,3.4,0,0,0,.5-.055,3.626,3.626,0,0,0,1.376-.475,3.757,3.757,0,0,0,1.862-3.211v-1.742c0-2.469,0-5.461-.027-8.973v-5.6a5.552,5.552,0,0,0-.12-1.475,3.617,3.617,0,0,0-.661-1.349,3.659,3.659,0,0,0-2.687-1.42l-68.815.033a3.654,3.654,0,0,0-3.539,2.731,4.161,4.161,0,0,0-.115,1.2v16.881a3.982,3.982,0,0,0,.279,1.092,3.687,3.687,0,0,0,3.555,2.217h8.94l30.928.027,20.857.049,5.669.027H274.66l-20.857.044-30.928.033h-8.919a3.971,3.971,0,0,1-3.823-2.381,4.37,4.37,0,0,1-.295-1.169c-.033-.415,0-.8,0-1.191V237.492a4.369,4.369,0,0,1,.126-1.267,3.932,3.932,0,0,1,3.823-2.955l68.815.049a3.883,3.883,0,0,1,3.517,2.927,5.553,5.553,0,0,1,.12,1.518v16.319a3.768,3.768,0,0,1-.333,1.5,3.862,3.862,0,0,1-1.6,1.759,3.643,3.643,0,0,1-1.4.459,3.467,3.467,0,0,1-.579.027Z" transform="translate(-192.885 -192.091)" fill="#263238"/>
        <path id="Path_1543" data-name="Path 1543" d="M339.364,241.067a.136.136,0,0,1-.1-.044.131.131,0,0,1,0-.191l1.873-1.8a.137.137,0,1,1,.2.191l-1.879,1.8A.126.126,0,0,1,339.364,241.067Z" transform="translate(-251.614 -194.688)" fill="#263238"/>
        <path id="Path_1544" data-name="Path 1544" d="M341.253,241.08a.142.142,0,0,1-.1-.038l-1.857-1.813a.137.137,0,0,1,.191-.191l1.857,1.813a.137.137,0,0,1,0,.191A.142.142,0,0,1,341.253,241.08Z" transform="translate(-251.635 -194.696)" fill="#263238"/>
        <path id="Path_1545" data-name="Path 1545" d="M231.044,255.089,230.279,254a3.9,3.9,0,0,1-.71-2.234v-2.447a3.976,3.976,0,0,0-3.37-3.927v-1.163a.546.546,0,0,0-.546-.546h0a.546.546,0,0,0-.546.546v1.147a3.976,3.976,0,0,0-3.512,3.949v2.523a3.872,3.872,0,0,1-.825,2.392l-.661.841Z" transform="translate(-197.554 -196.815)" fill="#455a64"/>
        <path id="Path_1546" data-name="Path 1546" d="M228.3,266.989a1.731,1.731,0,0,0,1.786-.306,1.638,1.638,0,0,0,.448-.694H227.36a1.742,1.742,0,0,0,.945,1Z" transform="translate(-200.845 -206.941)" fill="#455a64"/>
        <path id="Path_1547" data-name="Path 1547" d="M286.915,248.522c0,.076-8.531.142-19.055.142s-19.05-.066-19.05-.142,8.531-.142,19.05-.142S286.915,248.44,286.915,248.522Z" transform="translate(-210.58 -198.948)" fill="#263238"/>
        <path id="Path_1548" data-name="Path 1548" d="M295.873,256.962c0,.082-10.541.142-23.539.142s-23.544-.06-23.544-.142,10.535-.142,23.544-.142S295.873,256.886,295.873,256.962Z" transform="translate(-210.571 -202.779)" fill="#e0e0e0"/>
        <path id="Path_1549" data-name="Path 1549" d="M295.873,262.022c0,.076-10.541.142-23.539.142s-23.544-.066-23.544-.142,10.535-.142,23.544-.142S295.873,261.946,295.873,262.022Z" transform="translate(-210.571 -205.075)" fill="#e0e0e0"/>
        <rect id="Rectangle_93" data-name="Rectangle 93" width="75.576" height="24.227" rx="6.94" transform="translate(17.367 69.535)" fill="#fafafa"/>
        <path id="Path_1550" data-name="Path 1550" d="M282.293,309.3a4.14,4.14,0,0,0,1.857-.524,3.763,3.763,0,0,0,1.557-1.72,3.823,3.823,0,0,0,.322-1.453V289.419a5.257,5.257,0,0,0-.12-1.464,3.587,3.587,0,0,0-.65-1.338,3.659,3.659,0,0,0-2.66-1.431l-68.268.027a3.676,3.676,0,0,0-3.528,2.731,4.091,4.091,0,0,0-.126,1.185v16.756a3.884,3.884,0,0,0,.273,1.092,3.676,3.676,0,0,0,3.517,2.223h8.869l30.688.027,20.694.049,5.625.027h0l-5.625.027-20.694.044-30.688.033h-8.88a3.971,3.971,0,0,1-3.774-2.387,4.287,4.287,0,0,1-.295-1.163c0-.4,0-.786,0-1.18V289.108a4.287,4.287,0,0,1,.137-1.256,3.954,3.954,0,0,1,3.823-2.922l68.268.06a3.85,3.85,0,0,1,2.8,1.513,3.972,3.972,0,0,1,.683,1.409,5.917,5.917,0,0,1,.12,1.507c0,1.966,0,3.823,0,5.56,0,3.468,0,6.455-.027,8.9v1.726a3.823,3.823,0,0,1-1.944,3.222,3.6,3.6,0,0,1-1.393.453,3.4,3.4,0,0,1-.557.022Z" transform="translate(-193.14 -215.537)" fill="#263238"/>
        <path id="Path_1551" data-name="Path 1551" d="M338.884,292.668a.136.136,0,0,1-.1-.044.131.131,0,0,1,0-.191l1.862-1.786a.142.142,0,0,1,.2,0,.137.137,0,0,1,0,.191l-1.862,1.786A.125.125,0,0,1,338.884,292.668Z" transform="translate(-251.397 -218.113)" fill="#263238"/>
        <path id="Path_1552" data-name="Path 1552" d="M340.774,292.656a.142.142,0,0,1-.1-.038l-1.841-1.813a.137.137,0,1,1,.191-.2l1.841,1.8a.137.137,0,0,1,0,.191.142.142,0,0,1-.093.055Z" transform="translate(-251.419 -218.096)" fill="#263238"/>
        <path id="Path_1553" data-name="Path 1553" d="M231.43,306.587l-.781-1.092a3.823,3.823,0,0,1-.7-2.217v-2.414a3.954,3.954,0,0,0-3.348-3.9v-1.152a.546.546,0,0,0-.546-.546h0a.546.546,0,0,0-.546.546v1.136a3.949,3.949,0,0,0-3.479,3.921v2.507a3.856,3.856,0,0,1-.819,2.375l-.607.841Z" transform="translate(-197.777 -220.225)" fill="#e0e0e0"/>
        <path id="Path_1554" data-name="Path 1554" d="M228.694,318.394a1.726,1.726,0,0,0,1.775-.306,1.638,1.638,0,0,0,.442-.688H227.76a1.715,1.715,0,0,0,.934.994Z" transform="translate(-201.026 -230.273)" fill="#e0e0e0"/>
        <path id="Path_1555" data-name="Path 1555" d="M286.855,300.062c0,.082-8.465.142-18.908.142s-18.908-.06-18.908-.142,8.465-.142,18.908-.142S286.855,299.964,286.855,300.062Z" transform="translate(-210.684 -222.34)" fill="#263238"/>
        <path id="Path_1556" data-name="Path 1556" d="M295.768,308.442c0,.082-10.464.142-23.364.142s-23.364-.06-23.364-.142S259.5,308.3,272.4,308.3,295.768,308.366,295.768,308.442Z" transform="translate(-210.684 -226.143)" fill="#e0e0e0"/>
        <path id="Path_1557" data-name="Path 1557" d="M295.768,313.462c0,.076-10.464.142-23.364.142s-23.364-.066-23.364-.142,10.459-.142,23.364-.142S295.768,313.386,295.768,313.462Z" transform="translate(-210.684 -228.421)" fill="#e0e0e0"/>
      </g>
      <g id="freepik--Plant--inject-6" transform="translate(176.116 130.529)">
        <path id="Path_1558" data-name="Path 1558" d="M426.206,272.73c-5.653,2.933-9.989,7.974-13.108,13.523s-5.128,11.649-7.1,17.7l-1.759,31.19c6.581-11.2,11.862-24.353,13.288-37.253l-4.369-.393a10.464,10.464,0,0,0,6.969-5.1,31.02,31.02,0,0,0,3.162-8.291l-5.352.786a19.782,19.782,0,0,0,8.269-12.163Z" transform="translate(-372.001 -270.147)" fill="#455a64"/>
        <path id="Path_1559" data-name="Path 1559" d="M426.206,272.73c-5.653,2.933-9.989,7.974-13.108,13.523s-5.128,11.649-7.1,17.7l-1.759,31.19c6.581-11.2,11.862-24.353,13.288-37.253l-4.369-.393a10.464,10.464,0,0,0,6.969-5.1,31.02,31.02,0,0,0,3.162-8.291l-5.352.786a19.782,19.782,0,0,0,8.269-12.163Z" transform="translate(-372.001 -270.147)" fill="#3370cc"/>
        <g id="Group_957" data-name="Group 957" transform="translate(32.239 2.583)" opacity="0.3">
          <path id="Path_1560" data-name="Path 1560" d="M426.206,272.73c-5.653,2.933-9.989,7.974-13.108,13.523s-5.128,11.649-7.1,17.7l-1.759,31.19c6.581-11.2,11.862-24.353,13.288-37.253l-4.369-.393a10.464,10.464,0,0,0,6.969-5.1,31.02,31.02,0,0,0,3.162-8.291l-5.352.786a19.782,19.782,0,0,0,8.269-12.163Z" transform="translate(-404.24 -272.73)"/>
        </g>
        <path id="Path_1561" data-name="Path 1561" d="M390.7,340.3s-14.282-17.089-14.118-33.408h5.773s-6.27-4.118-5.773-6.428.661-11.043.661-11.043l5.276,1.322s-3.954-1.977-4.451-5.112S379.225,268,379.225,268s6.428,6.761,8.405,13.681,7.171,15,5.647,36.095S390.7,340.3,390.7,340.3Z" transform="translate(-359.438 -268)" fill="#3370cc"/>
        <path id="Path_1562" data-name="Path 1562" d="M415.7,357.383s15.472-10.306,18.908-23.457l-4.637-1.262s5.942-1.944,6.046-3.9,1.884-9.022,1.884-9.022l-4.528-.093s3.61-.726,4.7-3.135,2.911-14.429,2.911-14.429-6.647,4.025-9.749,9.159-9.044,10.486-12.436,27.783S415.7,357.383,415.7,357.383Z" transform="translate(-377.201 -283.467)" fill="#3370cc"/>
        <path id="Path_1563" data-name="Path 1563" d="M388.58,295.29a.65.65,0,0,1,.055.175c.033.137.077.311.126.546.109.481.262,1.163.459,2.026s.431,1.961.683,3.217.546,2.687.841,4.271c.612,3.168,1.262,6.958,1.922,11.174s1.289,8.864,1.862,13.757.994,9.568,1.327,13.823.546,8.094.677,11.316c.076,1.611.115,3.069.153,4.369s.066,2.387.071,3.277,0,1.584,0,2.075v.546a1.171,1.171,0,0,1,0,.186.6.6,0,0,1,0-.186v-.546c0-.5-.044-1.191-.076-2.081s-.066-2-.12-3.277-.109-2.731-.2-4.369c-.153-3.222-.41-7.056-.737-11.305s-.792-8.919-1.354-13.812-1.2-9.53-1.835-13.747-1.273-8.007-1.857-11.18c-.279-1.584-.546-3.02-.8-4.276s-.448-2.343-.628-3.228-.306-1.551-.4-2.037c-.038-.218-.071-.393-.093-.546A.943.943,0,0,1,388.58,295.29Z" transform="translate(-364.894 -280.386)" fill="#263238"/>
        <path id="Path_1564" data-name="Path 1564" d="M374.494,386.414s-13.069-14.822-17.122-23.785l3.058-1.305a7.945,7.945,0,0,1-6.215-2.037,23.5,23.5,0,0,1-4.227-5.232l4.036-.683a15.008,15.008,0,0,1-8.815-6.832,25.138,25.138,0,0,1,12.621,6.668,63.287,63.287,0,0,1,7.646,8.859,30.317,30.317,0,0,1,2.966,4.883C370.639,371.488,374.5,380.969,374.494,386.414Z" transform="translate(-345.21 -303.646)" fill="#3370cc"/>
        <path id="Path_1565" data-name="Path 1565" d="M431.948,317.88a.693.693,0,0,1-.06.153l-.2.431c-.191.393-.459.945-.792,1.638-.7,1.425-1.693,3.5-2.889,6.068-2.4,5.139-5.565,12.31-8.689,20.382s-5.6,15.511-7.286,20.928c-.841,2.731-1.5,4.915-1.944,6.434-.218.743-.393,1.327-.519,1.748l-.147.453a.725.725,0,0,1-.055.153.7.7,0,0,1,.027-.158c.027-.12.066-.273.115-.464.109-.426.268-1.016.464-1.764.41-1.535,1.038-3.747,1.851-6.461,1.638-5.461,4.085-12.895,7.2-20.978s6.33-15.248,8.782-20.366c1.223-2.561,2.245-4.62,2.977-6.008.36-.688.639-1.234.846-1.638l.224-.421C431.915,317.945,431.942,317.874,431.948,317.88Z" transform="translate(-374.329 -290.638)" fill="#263238"/>
        <path id="Path_1566" data-name="Path 1566" d="M392.913,410.131a.978.978,0,0,1-.066-.273c-.038-.218-.082-.475-.131-.786-.1-.683-.273-1.671-.513-2.884s-.573-2.643-1-4.222-.983-3.277-1.638-5.046-1.4-3.408-2.1-4.877-1.415-2.763-2.037-3.823-1.141-1.922-1.518-2.507l-.421-.677a.9.9,0,0,1-.131-.246,1.655,1.655,0,0,1,.18.213l.47.644c.41.546.961,1.4,1.606,2.458s1.365,2.354,2.1,3.823a50.763,50.763,0,0,1,2.135,4.915c.672,1.791,1.2,3.5,1.638,5.085s.732,3.031.945,4.254.355,2.217.415,2.906c.033.317.055.579.076.8a.85.85,0,0,1-.005.246Z" transform="translate(-362.52 -321.006)" fill="#263238"/>
        <rect id="Rectangle_94" data-name="Rectangle 94" width="28.602" height="5.833" transform="translate(19.039 85.636)" fill="#455a64"/>
        <path id="Path_1567" data-name="Path 1567" d="M385.06,435.48l3.091,19.623h17.28l2.884-19.623Z" transform="translate(-363.296 -344.011)" fill="#455a64"/>
        <path id="Path_1568" data-name="Path 1568" d="M409.137,435.353c0,.087-5.412.153-12.081.153s-12.086-.066-12.086-.153,5.412-.153,12.086-.153S409.137,435.271,409.137,435.353Z" transform="translate(-363.255 -343.884)" fill="#263238"/>
      </g>
      <g id="freepik--speech-bubble--inject-6" transform="translate(47.175 39.729)">
        <path id="Path_1569" data-name="Path 1569" d="M115.99,139.086l.6-7.056a16.5,16.5,0,1,1,5.429,2.338h0Z" transform="translate(-109.162 -101.759)" fill="#fff"/>
        <path id="Path_1570" data-name="Path 1570" d="M115.946,139.071l6.068-4.675.06-.049-.071-.033h0l-.038.093a16.931,16.931,0,0,0,3.932.437,16.652,16.652,0,0,0,4.648-.721,14.792,14.792,0,0,0,2.425-.972c.393-.213.808-.415,1.207-.639l1.18-.776a16.641,16.641,0,0,0,6.554-10.317,16.324,16.324,0,0,0-.087-6.974,16.827,16.827,0,0,0-3.277-6.554,16.264,16.264,0,0,0-6.046-4.68l-.923-.388c-.306-.137-.634-.213-.945-.317a7.273,7.273,0,0,0-.95-.279l-.967-.208a6.424,6.424,0,0,0-.972-.147l-.972-.115H125.8a8.156,8.156,0,0,0-.967,0,16.876,16.876,0,0,0-7.182,2.064,16.232,16.232,0,0,0-5.319,4.659,16.772,16.772,0,0,0-3.075,12.015,17.821,17.821,0,0,0,1.595,5.167,16.286,16.286,0,0,0,2.671,3.861,16.5,16.5,0,0,0,2.987,2.529v-.044c-.35,4.511-.546,6.718-.546,7.062.033-.344.235-2.545.644-7.051v-.027h0a16.817,16.817,0,0,1-2.955-2.529,16.385,16.385,0,0,1-2.632-3.85,17.783,17.783,0,0,1-1.562-5.123,16.63,16.63,0,0,1,3.064-11.89,16.161,16.161,0,0,1,5.265-4.6,16.69,16.69,0,0,1,7.1-2.032,7.961,7.961,0,0,1,.956,0h.961l.961.115a6.428,6.428,0,0,1,.956.147l.956.2c.322.06.623.186.939.273a6.265,6.265,0,0,1,.934.317l.907.382a16.09,16.09,0,0,1,5.975,4.62,16.619,16.619,0,0,1,3.211,6.494,16.215,16.215,0,0,1,.147,6.865,16.5,16.5,0,0,1-6.521,10.213l-1.163.77c-.4.229-.808.426-1.2.639a15.07,15.07,0,0,1-2.4.972,16.384,16.384,0,0,1-4.6.732,16.825,16.825,0,0,1-3.91-.41l-.033.093h0v-.087C118.131,137.345,116.23,138.847,115.946,139.071Z" transform="translate(-109.118 -101.744)" fill="#263238"/>
        <path id="Path_1571" data-name="Path 1571" d="M135.158,115.6l.508,9.59a1.556,1.556,0,0,0,1.447,1.464h0a1.551,1.551,0,0,0,1.638-1.36l1.163-9.623a1.223,1.223,0,0,0-1.218-1.365h-2.338a1.212,1.212,0,0,0-1.2,1.294Z" transform="translate(-120.935 -107.447)" fill="#3370cc"/>
        <path id="Path_1572" data-name="Path 1572" d="M139.544,143.195a2.338,2.338,0,1,1-1.48-2.955,2.338,2.338,0,0,1,1.48,2.955Z" transform="translate(-120.859 -119.161)" fill="#3370cc"/>
      </g>
    </g>
  </g>
</svg>
