<svg xmlns="http://www.w3.org/2000/svg" width="110" height="110" viewBox="0 0 110 110">
  <g id="Group_1576" data-name="Group 1576" transform="translate(-217 -408)">
    <g id="Rectangle_17" data-name="Rectangle 17" transform="translate(217 408)" fill="#fff" stroke="#707070" stroke-width="2">
      <rect width="110" height="110" rx="20" stroke="none"/>
      <rect x="1" y="1" width="108" height="108" rx="19" fill="none"/>
    </g>
    <text id="WFH" transform="translate(257 507)" fill="#707070" font-size="14" font-family="SegoeUI, Segoe UI"><tspan x="0" y="0">WFH</tspan></text>
    <g id="house" transform="translate(238.852 423.399)">
      <path id="Path_1227" data-name="Path 1227" d="M114.758,48.846V86.471H65.4V48.846l24.82-24.077Z" transform="translate(-56.929 -18.854)" fill="#e9eaef"/>
      <path id="Path_1228" data-name="Path 1228" d="M353.334,61.395v-6.95h12.34v18.7" transform="translate(-307.583 -44.688)" fill="#9eb1b7"/>
      <g id="Group_796" data-name="Group 796" transform="translate(0.985 59.731)">
        <rect id="Rectangle_20" data-name="Rectangle 20" width="29.801" height="7.885" transform="translate(34.527)" fill="#85c10d"/>
        <rect id="Rectangle_21" data-name="Rectangle 21" width="10.447" height="7.885" fill="#85c10d"/>
      </g>
      <path id="Path_1229" data-name="Path 1229" d="M114.758,64.4v7.033L90.078,47.868,65.4,71.432V64.4L88.118,42.761l1.96-1.821,1.959,1.821Z" transform="translate(-56.929 -32.931)" fill="#d2d4d8"/>
      <path id="Path_1230" data-name="Path 1230" d="M40.667,17.642,12.566,44.47l-3.929-3.3,30.07-28.638,1.959-1.82,1.959,1.82L72.7,41.172l-3.929,3.3Z" transform="translate(-7.519 -6.619)" fill="#4e90f2"/>
      <rect id="Rectangle_22" data-name="Rectangle 22" width="16.279" height="28.19" transform="translate(14.506 39.426)" fill="#f9d264"/>
      <rect id="Rectangle_23" data-name="Rectangle 23" width="18.538" height="16.279" transform="translate(35.511 39.426)" fill="#a0d9f2"/>
      <rect id="Rectangle_24" data-name="Rectangle 24" width="18.538" height="4.947" transform="translate(35.511 39.426)" fill="#f9d264"/>
      <circle id="Ellipse_3" data-name="Ellipse 3" cx="4.529" cy="4.529" r="4.529" transform="translate(28.619 22.32)" fill="#413740"/>
      <path id="Path_1231" data-name="Path 1231" d="M266.649,276.959v16.279a.985.985,0,0,0,.985.985h18.537a.985.985,0,0,0,.985-.985V276.959a.985.985,0,0,0-.985-.985H267.634A.984.984,0,0,0,266.649,276.959Zm1.969,15.294V282.89h16.568v9.363Zm16.568-14.309v2.977H268.618v-2.977Z" transform="translate(-232.122 -237.532)"/>
      <path id="Path_1232" data-name="Path 1232" d="M65.312,58.748h-6.5V36.888l1.755,1.676a.985.985,0,0,0,1.313.042l3.908-3.28a1.03,1.03,0,0,0,.3-.409.986.986,0,0,0-.236-1.077l-6.781-6.458v-9.32a.985.985,0,0,0-.985-.985h0a.985.985,0,0,0-.985.985v7.445L46.736,15.63V10.742H57.107v2.725a.985.985,0,0,0,.985.985h0a.985.985,0,0,0,.985-.985V9.757a.985.985,0,0,0-.985-.985H45.752a.985.985,0,0,0-.985.985v4L35.778,5.193l-1.959-1.82a.985.985,0,0,0-1.34,0L30.51,5.2.439,33.84A.986.986,0,0,0,.2,34.916a1.031,1.031,0,0,0,.3.409l3.908,3.28a.985.985,0,0,0,1.313-.042l1.756-1.676v6.445a.985.985,0,0,0,.985.985h0a.985.985,0,0,0,.985-.985V35.007l23.7-22.623,23.7,22.624v23.74H35.512a.985.985,0,0,0-.985.985v6.9H31.77V39.427a.985.985,0,0,0-.985-.985H14.507a.985.985,0,0,0-.985.985V66.632H12.416v-6.9a.985.985,0,0,0-.985-.985H9.453V47.927a.985.985,0,0,0-.985-.985h0a.985.985,0,0,0-.985.985V58.748H.985A.985.985,0,0,0,0,59.732v7.884a.985.985,0,0,0,.985.985H65.312a.985.985,0,0,0,.985-.985V59.732A.985.985,0,0,0,65.312,58.748ZM33.148,10.038a.982.982,0,0,0-.68.272L5.006,36.53,2.595,34.506,31.859,6.636l1.289-1.2,1.28,1.189L63.7,34.506,61.291,36.53,33.828,10.31A.982.982,0,0,0,33.148,10.038ZM1.969,60.717h8.477v5.915H1.969Zm13.522,5.915V40.411H29.8v26.22Zm48.836,0H36.5V60.717H64.327v5.915Z"/>
      <path id="Path_1233" data-name="Path 1233" d="M190.476,384.129h-2.363a.985.985,0,1,0,0,1.969h2.363a.985.985,0,1,0,0-1.969Z" transform="translate(-162.898 -331.683)"/>
      <path id="Path_1234" data-name="Path 1234" d="M218.936,143.856a5.514,5.514,0,1,0,5.513,5.514A5.52,5.52,0,0,0,218.936,143.856Zm0,9.058a3.544,3.544,0,1,1,3.544-3.544A3.548,3.548,0,0,1,218.936,152.914Z" transform="translate(-185.788 -122.521)"/>
    </g>
  </g>
</svg>
