<svg xmlns="http://www.w3.org/2000/svg" width="110" height="110" viewBox="0 0 110 110">
  <g id="Group_1575" data-name="Group 1575" transform="translate(-1346.148 394.946)">
    <g id="Rectangle_15" data-name="Rectangle 15" transform="translate(1346.148 -394.946)" fill="#fff" stroke="#707070" stroke-width="2">
      <rect width="110" height="110" rx="20" stroke="none"/>
      <rect x="1" y="1" width="108" height="108" rx="19" fill="none"/>
    </g>
    <text id="WFO" transform="translate(1388.146 -295.58)" fill="#707070" font-size="15" font-family="SegoeUI, Segoe UI"><tspan x="0" y="0">WFO</tspan></text>
    <g id="office" transform="translate(1363.148 -392.445)">
      <g id="Group_794" data-name="Group 794" transform="translate(11.39 17.063)">
        <path id="Path_1212" data-name="Path 1212" d="M67.7,53.837H61.315a5.322,5.322,0,1,1,1.759-10.345,6.386,6.386,0,0,1,11.746.86" transform="translate(-52.996 -37.87)" fill="#d9e3f1"/>
        <path id="Path_1213" data-name="Path 1213" d="M382.9,307.675H368V280l14.9,6.387Z" transform="translate(-323.491 -245.938)" fill="#ffda44"/>
        <path id="Path_1214" data-name="Path 1214" d="M173.8,85.737H144V32.515L173.8,24Z" transform="translate(-129.295 -24)" fill="#4e90f2"/>
        <path id="Path_1215" data-name="Path 1215" d="M208,368h12.773v12.773H208Z" transform="translate(-184.779 -322.23)" fill="#83d8f4"/>
        <path id="Path_1216" data-name="Path 1216" d="M192,464h17.031v3.193H192Z" transform="translate(-170.908 -405.456)" fill="#d8d7da"/>
        <g id="Group_793" data-name="Group 793" transform="translate(18.963 13.838)">
          <path id="Path_1217" data-name="Path 1217" d="M176,288h21.289v6.387H176Z" transform="translate(-176 -266.711)" fill="#bed8fb"/>
          <path id="Path_1218" data-name="Path 1218" d="M400,360h10.644v6.387H400Z" transform="translate(-370.196 -329.132)" fill="#bed8fb"/>
          <path id="Path_1219" data-name="Path 1219" d="M176,208h21.289v6.387H176Z" transform="translate(-176 -197.356)" fill="#bed8fb"/>
          <path id="Path_1220" data-name="Path 1220" d="M176,128h21.289v6.387H176Z" transform="translate(-176 -128)" fill="#bed8fb"/>
        </g>
        <ellipse id="Ellipse_2" data-name="Ellipse 2" cx="5.085" cy="7.458" rx="5.085" ry="7.458" transform="translate(0 36.36)" fill="#91cc04"/>
        <path id="Path_1221" data-name="Path 1221" d="M40,432l4.258,2.129" transform="translate(-39.132 -377.714)" fill="#d8d7da"/>
        <path id="Path_1222" data-name="Path 1222" d="M368,141.837h9.58a4.258,4.258,0,1,0-1.13-8.362,6.388,6.388,0,0,0-8.45-5.111" transform="translate(-323.491 -114.162)" fill="#d9e3f1"/>
      </g>
      <g id="Group_795" data-name="Group 795" transform="translate(8 15.999)">
        <path id="Path_1223" data-name="Path 1223" d="M72.93,77.736H71.866V57.512a1.064,1.064,0,0,0-.645-.978L56.964,50.423V45.8h8.515a5.322,5.322,0,0,0,0-10.644c-.1,0-.2,0-.307.009a7.445,7.445,0,0,0-8.208-5.254V17.063a1.063,1.063,0,0,0-1.357-1.023L33.831,22.262a7.451,7.451,0,0,0-12.87-.817,6.387,6.387,0,1,0-1.252,12.649h5.322V77.736H17.58V69.1a6.007,6.007,0,0,0,3.565-2.511,10.74,10.74,0,0,0,0-11.775,5.7,5.7,0,0,0-4.629-2.628,5.7,5.7,0,0,0-4.629,2.628,10.74,10.74,0,0,0,0,11.775A6.007,6.007,0,0,0,15.451,69.1v2.653L12.734,70.4a1.065,1.065,0,0,0-.953,1.905l3.67,1.833v3.6H9.064a1.064,1.064,0,0,0,0,2.129H72.93a1.064,1.064,0,0,0,0-2.129ZM56.964,32.073a5.243,5.243,0,0,1,1.064-.108A5.345,5.345,0,0,1,63.3,36.527a1.064,1.064,0,0,0,1.335.877,3.193,3.193,0,1,1,.849,6.271H56.964ZM16.515,62.834A1.064,1.064,0,0,0,15.451,63.9V66.88c-1.812-.73-3.193-3.262-3.193-6.175,0-3.462,1.949-6.387,4.258-6.387s4.258,2.925,4.258,6.387c0,2.913-1.381,5.445-3.193,6.175V63.9A1.064,1.064,0,0,0,16.515,62.834ZM25.8,24.556a1.064,1.064,0,0,0-.772,1.023v6.387H19.709a4.258,4.258,0,1,1,1.408-8.276,1.064,1.064,0,0,0,1.3-.522,5.321,5.321,0,0,1,9.319-.307Zm22.646,53.18h-14.9V76.671h14.9ZM35.675,74.543V63.9h4.258V74.543Zm6.387,0V63.9h4.258V74.543Zm12.773,3.193H50.577V75.607a1.064,1.064,0,0,0-1.064-1.064H48.448V62.834a1.064,1.064,0,0,0-1.064-1.064H34.611a1.064,1.064,0,0,0-1.064,1.064V74.543H32.482a1.064,1.064,0,0,0-1.064,1.064v2.129H27.16V26.381l27.675-7.906Zm14.9-10.644H61.221V62.834h8.515Zm0-6.387h-9.58a1.064,1.064,0,0,0-1.064,1.064v6.387a1.064,1.064,0,0,0,1.064,1.064h9.58v8.515H56.964v-25l12.773,5.475Z" transform="translate(-8 -15.999)"/>
        <path id="Path_1224" data-name="Path 1224" d="M190.353,288.515a1.064,1.064,0,0,0,1.064-1.064v-6.387A1.064,1.064,0,0,0,190.353,280H169.064A1.064,1.064,0,0,0,168,281.064v6.387a1.064,1.064,0,0,0,1.064,1.064Zm-20.224-6.387h19.16v4.258h-19.16Z" transform="translate(-146.711 -244.874)"/>
        <path id="Path_1225" data-name="Path 1225" d="M169.064,208.515h21.289a1.064,1.064,0,0,0,1.064-1.064v-6.387A1.064,1.064,0,0,0,190.353,200H169.064A1.064,1.064,0,0,0,168,201.064v6.387A1.064,1.064,0,0,0,169.064,208.515Zm1.064-6.387h19.16v4.258h-19.16Z" transform="translate(-146.711 -175.518)"/>
        <path id="Path_1226" data-name="Path 1226" d="M169.064,128.515h21.289a1.064,1.064,0,0,0,1.064-1.064v-6.387A1.064,1.064,0,0,0,190.353,120H169.064A1.064,1.064,0,0,0,168,121.064v6.387A1.064,1.064,0,0,0,169.064,128.515Zm1.064-6.387h19.16v4.258h-19.16Z" transform="translate(-146.711 -106.162)"/>
      </g>
    </g>
  </g>
</svg>
